<svg width="594" height="100" viewBox="0 0 594 100" fill="none" xmlns="http://www.w3.org/2000/svg">
<path d="M4.53125 6.78125C6.53125 6.84375 8.28125 6.875 9.78125 6.875C11.2812 6.8125 12.5 6.78125 13.4375 6.78125H16.1562C16.8438 6.71875 17.6875 6.6875 18.6875 6.6875C19.5625 6.6875 20.625 6.6875 21.875 6.6875C23.125 6.6875 24.5625 6.71875 26.1875 6.78125C26.6875 8.53125 27.25 10.25 27.875 11.9375C28.5625 13.5625 29.1562 15.0312 29.6562 16.3438C30.2812 17.9062 30.9062 19.375 31.5312 20.75C32.1562 22.125 32.9062 23.7813 33.7812 25.7188C34.5312 27.3438 35.4375 29.3438 36.5 31.7188C37.5625 34.0312 38.8125 36.6875 40.25 39.6875C40.9375 37.75 41.5625 35.9688 42.125 34.3438C42.75 32.7188 43.2812 31.3125 43.7188 30.125C44.2188 28.75 44.625 27.5 44.9375 26.375C45.25 25.25 45.5938 23.875 45.9688 22.25C46.2812 20.875 46.625 19.2187 47 17.2812C47.4375 15.3438 47.875 13.0938 48.3125 10.5312C50.125 10.5312 51.75 10.5312 53.1875 10.5312C54.625 10.5312 55.875 10.5 56.9375 10.4375C58.125 10.4375 59.1875 10.4062 60.125 10.3438C61.125 10.3438 62.4688 10.2813 64.1562 10.1562C65.5938 10.0312 67.5 9.9375 69.875 9.875C72.3125 9.75 75.3125 9.59375 78.875 9.40625C77.5625 10.3438 76.5 11.2812 75.6875 12.2188C74.9375 13.0938 74.3438 13.875 73.9062 14.5625C73.4062 15.375 73.0938 16.1562 72.9688 16.9062C72.8438 17.5312 72.7188 18.9688 72.5938 21.2188C72.5312 23.4688 72.4375 26.1562 72.3125 29.2812C72.25 32.3438 72.1875 35.625 72.125 39.125C72.125 42.625 72.1562 45.9375 72.2188 49.0625C72.2812 52.1875 72.375 54.9062 72.5 57.2188C72.6875 59.4688 72.9375 60.9062 73.25 61.5312C73.6875 62.2812 74.2812 63.1562 75.0312 64.1562C75.7188 65.0312 76.5938 66.0312 77.6562 67.1562C78.7812 68.2812 80.25 69.5312 82.0625 70.9062C79.1875 71.0312 76.7812 71.125 74.8438 71.1875C72.9688 71.25 71.4062 71.3125 70.1562 71.375C68.7188 71.4375 67.5625 71.4688 66.6875 71.4688C65.75 71.4688 64.4688 71.5 62.8438 71.5625C61.4062 71.625 59.5 71.7188 57.125 71.8438C54.75 71.9062 51.6875 72.0312 47.9375 72.2188C48.8125 71.2188 49.625 70.2188 50.375 69.2188C51.125 68.2188 51.75 67.3125 52.25 66.5C52.875 65.5625 53.4062 64.6562 53.8438 63.7812C54.2812 62.5938 54.625 60.4375 54.875 57.3125C55.125 54.625 55.3125 50.7812 55.4375 45.7812C55.5625 40.7188 55.5625 33.9375 55.4375 25.4375C54.25 27.375 53.1875 29.3125 52.25 31.25C51.375 33.125 50.5938 34.8438 49.9062 36.4062C49.1562 38.2188 48.4688 39.9688 47.8438 41.6562C47.2188 43.4062 46.5625 45.3438 45.875 47.4688C45.25 49.2812 44.5 51.4375 43.625 53.9375C42.8125 56.4375 41.875 59.1875 40.8125 62.1875L37.25 62.375C36.75 59.875 36.25 57.625 35.75 55.625C35.25 53.5625 34.75 51.8125 34.25 50.375C33.6875 48.6875 33.125 47.1875 32.5625 45.875C31.9375 44.5625 31.25 43.0938 30.5 41.4688C29.8125 40.0938 28.9688 38.4688 27.9688 36.5938C27.0312 34.7188 25.9375 32.625 24.6875 30.3125C24.0625 36.6875 23.6875 41.875 23.5625 45.875C23.4375 49.8125 23.4375 52.875 23.5625 55.0625C23.6875 57.6875 23.875 59.5938 24.125 60.7812C24.5 61.8438 25.0938 63.0312 25.9062 64.3438C26.5938 65.4688 27.5312 66.8125 28.7188 68.375C29.9688 69.875 31.5625 71.5625 33.5 73.4375C32.125 73.4375 30.6875 73.4375 29.1875 73.4375C27.6875 73.4375 26.3125 73.4688 25.0625 73.5312C23.5625 73.5938 22.0938 73.625 20.6562 73.625C19.1562 73.6875 17.4062 73.7812 15.4062 73.9062C13.6562 74.0312 11.5625 74.1562 9.125 74.2812C6.6875 74.4062 3.875 74.625 0.6875 74.9375C2.0625 74.0625 3.1875 73.2188 4.0625 72.4062C4.9375 71.5312 5.625 70.75 6.125 70.0625C6.75 69.25 7.21875 68.4375 7.53125 67.625C7.71875 67.125 7.875 66.0312 8 64.3438C8.1875 62.6562 8.34375 60.5938 8.46875 58.1562C8.65625 55.7188 8.78125 53 8.84375 50C8.96875 47 9.0625 43.9688 9.125 40.9062C9.25 37.7812 9.34375 34.75 9.40625 31.8125C9.46875 28.8125 9.5 26.125 9.5 23.75C9.5625 21.3125 9.59375 19.2813 9.59375 17.6562C9.59375 16.0312 9.59375 15 9.59375 14.5625C9.40625 13.625 9.125 12.6875 8.75 11.75C8.4375 10.9375 7.9375 10.0938 7.25 9.21875C6.5625 8.34375 5.65625 7.53125 4.53125 6.78125ZM95.8438 10.5312C98.9688 10.7188 101.594 10.875 103.719 11C105.906 11.0625 107.719 11.125 109.156 11.1875C110.781 11.25 112.156 11.25 113.281 11.1875C114.406 11.125 115.938 10.9687 117.875 10.7188C119.5 10.5312 121.656 10.25 124.344 9.875C127.094 9.4375 130.5 8.875 134.562 8.1875C133.125 9.625 132 10.9375 131.188 12.125C130.438 13.25 129.844 14.2188 129.406 15.0312C128.906 16.0312 128.562 16.875 128.375 17.5625C128.25 18.1875 128.375 19.75 128.75 22.25C129.125 24.75 129.656 27.7188 130.344 31.1562C131.031 34.5312 131.781 38.1562 132.594 42.0312C133.406 45.8438 134.219 49.4375 135.031 52.8125C135.844 56.125 136.562 58.9688 137.188 61.3438C137.875 63.6562 138.375 65.0312 138.688 65.4688C139.625 66.7812 140.219 67.6562 140.469 68.0938C140.719 68.4688 141.156 68.8125 141.781 69.125C142.031 69.25 142.438 69.4375 143 69.6875C143.5 69.9375 144.156 70.25 144.969 70.625C145.844 71 146.938 71.4375 148.25 71.9375C145.812 72.0625 143.719 72.1562 141.969 72.2188C140.219 72.2188 138.781 72.25 137.656 72.3125C136.344 72.375 135.219 72.4375 134.281 72.5C133.344 72.5 132.219 72.5625 130.906 72.6875C129.781 72.8125 128.312 72.9375 126.5 73.0625C124.75 73.1875 122.688 73.3125 120.312 73.4375C121.562 72.5625 122.562 71.7812 123.312 71.0938C124.125 70.3438 124.75 69.7188 125.188 69.2188C125.688 68.5938 126.031 68.0312 126.219 67.5312C126.344 66.9688 126.438 66.125 126.5 65C126.562 64 126.562 62.6875 126.5 61.0625C126.438 59.375 126.281 57.1875 126.031 54.5L101.375 57.0312C100.75 58.0938 100.281 59.0312 99.9688 59.8438C99.6562 60.5938 99.4375 61.25 99.3125 61.8125C99.125 62.5 99.0625 63.0625 99.125 63.5C99.25 64 99.4688 64.5938 99.7812 65.2812C100.094 65.9062 100.531 66.6562 101.094 67.5312C101.719 68.3438 102.625 69.3125 103.812 70.4375C102.25 70.375 100.656 70.3438 99.0312 70.3438C97.4062 70.3438 95.9062 70.375 94.5312 70.4375C92.9062 70.5 91.3125 70.5625 89.75 70.625C88.1875 70.6875 86.4062 70.7812 84.4062 70.9062C82.7188 71.0312 80.75 71.1875 78.5 71.375C76.1875 71.5 73.7188 71.6875 71.0938 71.9375C72.7188 71.1875 74.0938 70.4375 75.2188 69.6875C76.3438 68.875 77.2812 68.125 78.0312 67.4375C78.9062 66.6875 79.6562 65.9688 80.2812 65.2812C80.7188 64.6562 81.5938 63.2188 82.9062 60.9688C84.2188 58.6562 85.6875 55.9375 87.3125 52.8125C89 49.6875 90.75 46.3438 92.5625 42.7812C94.4375 39.2188 96.125 35.875 97.625 32.75C99.125 29.5625 100.344 26.8125 101.281 24.5C102.219 22.1875 102.688 20.6875 102.688 20C102.562 19.1875 102.25 18.2812 101.75 17.2812C101.312 16.4062 100.625 15.4062 99.6875 14.2812C98.8125 13.1562 97.5312 11.9062 95.8438 10.5312ZM124.906 47.5625C124.531 45.375 124.188 43.5 123.875 41.9375C123.562 40.3125 123.312 38.9688 123.125 37.9062C122.875 36.6562 122.688 35.5625 122.562 34.625C122.375 33.75 122.156 32.625 121.906 31.25C121.656 30.0625 121.344 28.5938 120.969 26.8438C120.656 25.0312 120.25 22.875 119.75 20.375C116.188 27.5 113.406 33.0312 111.406 36.9688C109.469 40.8438 108.062 43.6875 107.188 45.5C106.125 47.625 105.531 48.875 105.406 49.25L124.906 47.5625ZM142.906 7.53125C145.719 8.03125 148.031 8.375 149.844 8.5625C151.656 8.75 153.125 8.90625 154.25 9.03125C155.562 9.15625 156.594 9.1875 157.344 9.125H160.156C161.156 9.125 162.406 9.125 163.906 9.125C165.469 9.0625 167.406 9.03125 169.719 9.03125C171.031 12.0937 172.219 14.9062 173.281 17.4688C174.406 20.0313 175.344 22.2187 176.094 24.0312C176.969 26.2188 177.781 28.1875 178.531 29.9375C179.406 32.125 180.344 34.5312 181.344 37.1562C182.344 39.7812 183.25 42.25 184.062 44.5625C184.938 46.875 185.656 48.7812 186.219 50.2812C186.781 51.7812 187.062 52.4688 187.062 52.3438C187.062 52.2812 187.094 51.6562 187.156 50.4688C187.219 49.2188 187.281 47.6875 187.344 45.875C187.406 44 187.469 41.9688 187.531 39.7812C187.656 37.5312 187.719 35.375 187.719 33.3125C187.781 31.1875 187.812 29.25 187.812 27.5C187.812 25.75 187.75 24.4375 187.625 23.5625C187.438 22.5 187.062 21.2812 186.5 19.9062C186 18.7188 185.312 17.3125 184.438 15.6875C183.562 14 182.344 12.0937 180.781 9.96875C183.344 10.0312 185.438 10.0625 187.062 10.0625C188.688 10.0625 190 10.0625 191 10.0625C192.125 10.0625 193 10.0312 193.625 9.96875C194.438 9.96875 195.438 9.90625 196.625 9.78125C197.688 9.65625 199 9.5625 200.562 9.5C202.188 9.375 204.188 9.21875 206.562 9.03125C205.188 10.2813 204.094 11.4688 203.281 12.5938C202.469 13.7188 201.812 14.7187 201.312 15.5938C200.75 16.5937 200.375 17.5312 200.188 18.4062C199.938 19.5312 199.719 21.375 199.531 23.9375C199.406 26.4375 199.25 29.25 199.062 32.375C198.938 35.5 198.812 38.75 198.688 42.125C198.562 45.5 198.438 48.5938 198.312 51.4062C198.312 53.5312 198.25 55.8125 198.125 58.25C198 60.3125 197.875 62.6562 197.75 65.2812C197.625 67.8438 197.469 70.4375 197.281 73.0625L188.938 73.25C186.5 68.9375 184.438 65.25 182.75 62.1875C181.125 59.0625 179.781 56.5 178.719 54.5C177.531 52.1875 176.531 50.25 175.719 48.6875C175.031 47.1875 174.125 45.4688 173 43.5312C172.062 41.9062 170.875 39.9062 169.438 37.5312C168.062 35.1562 166.406 32.4375 164.469 29.375C164.281 33.6875 164.188 37.375 164.188 40.4375C164.25 43.4375 164.344 45.9375 164.469 47.9375C164.656 50.25 164.875 52.1875 165.125 53.75C165.438 55.25 165.875 56.9375 166.438 58.8125C166.938 60.4375 167.531 62.3438 168.219 64.5312C168.969 66.7188 169.875 69.1875 170.938 71.9375C167.25 71.75 164.5 71.6562 162.688 71.6562H159.875C159 71.6562 157.812 71.75 156.312 71.9375C155.062 72.0625 153.344 72.25 151.156 72.5C149.031 72.75 146.375 73.0938 143.188 73.5312C144.688 71.7188 145.875 70.0625 146.75 68.5625C147.688 67 148.406 65.6875 148.906 64.625C149.531 63.375 149.969 62.2812 150.219 61.3438C150.406 60.3438 150.531 58.625 150.594 56.1875C150.656 53.6875 150.656 50.875 150.594 47.75C150.594 44.5625 150.531 41.2188 150.406 37.7188C150.344 34.2188 150.25 30.9688 150.125 27.9688C150 24.9688 149.844 22.4062 149.656 20.2812C149.531 18.1563 149.438 16.8438 149.375 16.3438C149.188 15.5313 148.812 14.6562 148.25 13.7188C147.75 12.9063 147.094 12 146.281 11C145.469 9.9375 144.344 8.78125 142.906 7.53125ZM206.094 9.40625C208.219 9.65625 210 9.84375 211.438 9.96875C212.938 10.0312 214.156 10.125 215.094 10.25C216.219 10.375 217.094 10.4375 217.719 10.4375C218.406 10.5 219.438 10.4688 220.812 10.3438C222 10.2187 223.594 10.0625 225.594 9.875C227.656 9.6875 230.281 9.40625 233.469 9.03125C232.031 10.2813 230.875 11.5 230 12.6875C229.188 13.8125 228.562 14.8125 228.125 15.6875C227.562 16.75 227.219 17.75 227.094 18.6875C226.844 20.1875 226.625 22.25 226.438 24.875C226.312 27.4375 226.188 30.25 226.062 33.3125C225.938 36.375 225.875 39.5312 225.875 42.7812C225.875 46.0312 225.906 49.125 225.969 52.0625C226.094 54.9375 226.281 57.5 226.531 59.75C226.844 62 227.219 63.625 227.656 64.625C228.281 65.75 228.938 66.875 229.625 68C230.25 68.9375 231 69.9062 231.875 70.9062C232.75 71.9062 233.75 72.7188 234.875 73.3438C231.188 73.1562 228.25 73.0625 226.062 73.0625H222.688C221.688 73.0625 220.406 73.125 218.844 73.25C217.531 73.375 215.875 73.5 213.875 73.625C211.875 73.75 209.469 73.9375 206.656 74.1875C208.094 72.625 209.219 71.125 210.031 69.6875C210.844 68.25 211.5 67 212 65.9375C212.562 64.6875 212.938 63.5 213.125 62.375C213.375 60.75 213.562 58.75 213.688 56.375C213.875 53.9375 214 51.3438 214.062 48.5938C214.125 45.7812 214.125 42.9375 214.062 40.0625C214.062 37.125 214 34.3125 213.875 31.625C213.75 28.9375 213.562 26.5 213.312 24.3125C213.125 22.125 212.875 20.375 212.562 19.0625C212.375 18.25 212 17.3437 211.438 16.3438C210.938 15.4687 210.25 14.4688 209.375 13.3438C208.562 12.1563 207.469 10.8438 206.094 9.40625ZM233.469 5.5625C237.656 6.0625 241.281 6.4375 244.344 6.6875C247.406 6.875 249.938 7.03125 251.938 7.15625C254.25 7.28125 256.188 7.3125 257.75 7.25C259.375 7.1875 261.594 7.03125 264.406 6.78125C266.781 6.59375 269.906 6.34375 273.781 6.03125C277.656 5.65625 282.5 5.15625 288.312 4.53125C288.375 5.96875 288.406 7.375 288.406 8.75C288.469 10.0625 288.531 11.2188 288.594 12.2188C288.656 13.4062 288.688 14.5 288.688 15.5C288.688 16.5625 288.625 17.9062 288.5 19.5312C288.375 20.9062 288.156 22.6563 287.844 24.7812C287.594 26.8438 287.188 29.3125 286.625 32.1875C285.75 28.8125 284.906 26.0938 284.094 24.0312C283.281 21.9063 282.531 20.2188 281.844 18.9688C281.094 17.5312 280.344 16.4375 279.594 15.6875C278.781 15.125 277.812 14.6562 276.688 14.2812C275.688 13.9687 274.406 13.7188 272.844 13.5312C271.344 13.3438 269.562 13.375 267.5 13.625C267.188 21.875 266.969 28.5625 266.844 33.6875C266.719 38.8125 266.625 42.8125 266.562 45.6875C266.5 49.125 266.469 51.5938 266.469 53.0938C266.531 55.2188 266.875 57.3125 267.5 59.375C268 61.125 268.812 62.9375 269.938 64.8125C271.062 66.6875 272.688 68.3438 274.812 69.7812H263.375C262.312 69.7812 261 69.8438 259.438 69.9688C258.125 70.0938 256.438 70.2188 254.375 70.3438C252.375 70.4688 250.031 70.6875 247.344 71C248.281 69.375 249.031 67.9062 249.594 66.5938C250.156 65.2812 250.594 64.1562 250.906 63.2188C251.281 62.0938 251.562 61.0938 251.75 60.2188C251.812 58.9688 251.969 56.4375 252.219 52.625C252.281 51.0625 252.344 49.125 252.406 46.8125C252.531 44.5 252.656 41.75 252.781 38.5625C252.969 35.375 253.125 31.7188 253.25 27.5938C253.438 23.4063 253.625 18.6875 253.812 13.4375C252.688 13.125 251.625 13.1562 250.625 13.5312C249.625 13.8438 248.75 14.25 248 14.75C247.125 15.375 246.281 16.125 245.469 17C244.656 18.0625 243.75 19.4375 242.75 21.125C241.875 22.5625 240.875 24.4687 239.75 26.8438C238.625 29.1562 237.344 32.0312 235.906 35.4688C235.594 31.8438 235.375 28.875 235.25 26.5625C235.125 24.1875 235.031 22.3438 234.969 21.0312C234.906 19.4688 234.875 18.3125 234.875 17.5625C234.875 16.875 234.812 15.9688 234.688 14.8438C234.562 13.9062 234.406 12.6875 234.219 11.1875C234.031 9.625 233.781 7.75 233.469 5.5625ZM318.078 53.6094H321.359C321.703 57.1719 322.391 60.1406 323.422 62.5156C324.453 64.8906 325.719 66.7812 327.219 68.1875C328.75 69.5938 330.484 70.5938 332.422 71.1875C334.391 71.75 336.469 72.0312 338.656 72.0312C341.281 72.0312 343.516 71.7031 345.359 71.0469C347.234 70.3906 348.766 69.4844 349.953 68.3281C351.172 67.1406 352.047 65.7344 352.578 64.1094C353.141 62.4531 353.422 60.6406 353.422 58.6719C353.422 56.2344 353.016 54.2344 352.203 52.6719C351.391 51.0781 350.25 49.7344 348.781 48.6406C347.344 47.5156 345.609 46.5469 343.578 45.7344C341.547 44.9219 339.312 44.0781 336.875 43.2031C334.438 42.3281 332.109 41.4062 329.891 40.4375C327.703 39.4688 325.766 38.2656 324.078 36.8281C322.391 35.3906 321.047 33.6406 320.047 31.5781C319.078 29.4844 318.594 26.8906 318.594 23.7969C318.594 20.8906 319.062 18.2344 320 15.8281C320.938 13.4219 322.328 11.375 324.172 9.6875C326.016 7.96875 328.297 6.64062 331.016 5.70312C333.766 4.76562 336.953 4.29688 340.578 4.29688C342.016 4.29688 343.5 4.375 345.031 4.53125C346.562 4.65625 348.078 4.85938 349.578 5.14062C351.109 5.42188 352.609 5.76562 354.078 6.17188C355.547 6.54688 356.938 6.96875 358.25 7.4375L358.812 24.4531H355.531C355.25 21.0781 354.625 18.3281 353.656 16.2031C352.688 14.0781 351.5 12.4219 350.094 11.2344C348.719 10.0156 347.172 9.1875 345.453 8.75C343.766 8.28125 342.031 8.04688 340.25 8.04688C337.875 8.04688 335.812 8.34375 334.062 8.9375C332.312 9.5 330.859 10.3281 329.703 11.4219C328.547 12.4844 327.672 13.7969 327.078 15.3594C326.516 16.8906 326.234 18.625 326.234 20.5625C326.234 22.875 326.641 24.7969 327.453 26.3281C328.266 27.8594 329.406 29.1875 330.875 30.3125C332.375 31.4062 334.156 32.3906 336.219 33.2656C338.312 34.1094 340.609 35 343.109 35.9375C345.391 36.8125 347.625 37.75 349.812 38.75C352.031 39.7188 354 40.9531 355.719 42.4531C357.469 43.9219 358.875 45.75 359.938 47.9375C361 50.0938 361.531 52.7812 361.531 56C361.531 59.125 360.984 61.9062 359.891 64.3438C358.828 66.7812 357.281 68.8281 355.25 70.4844C353.25 72.1406 350.797 73.4062 347.891 74.2812C344.984 75.1562 341.703 75.5938 338.047 75.5938C336.453 75.5938 334.797 75.5156 333.078 75.3594C331.391 75.2031 329.703 74.9688 328.016 74.6562C326.359 74.3438 324.734 73.9844 323.141 73.5781C321.547 73.1719 320.062 72.7031 318.688 72.1719L318.078 53.6094ZM384.5 40.0625H384.688C386.062 37.5312 387.844 35.6875 390.031 34.5312C392.219 33.375 394.656 32.7969 397.344 32.7969C400 32.7969 402.453 33.2969 404.703 34.2969C406.984 35.2969 408.953 36.7188 410.609 38.5625C412.266 40.375 413.547 42.5781 414.453 45.1719C415.391 47.7656 415.859 50.6406 415.859 53.7969C415.859 57.1406 415.344 60.1406 414.312 62.7969C413.312 65.4531 411.953 67.7031 410.234 69.5469C408.516 71.3906 406.516 72.8125 404.234 73.8125C401.953 74.8125 399.531 75.3125 396.969 75.3125C394.438 75.3125 392.109 74.7656 389.984 73.6719C387.859 72.5469 386.094 70.7656 384.688 68.3281H384.5V95.9375H392V99.6875H369.031V95.9375H376.062V37.8125H369.031V34.0625H384.5V40.0625ZM406.578 53.9844C406.578 50.3906 406.328 47.4688 405.828 45.2188C405.328 42.9375 404.609 41.1562 403.672 39.875C402.766 38.5625 401.688 37.6719 400.438 37.2031C399.188 36.7344 397.812 36.5 396.312 36.5C394.156 36.5 392.328 36.9531 390.828 37.8594C389.328 38.7656 388.109 40.0156 387.172 41.6094C386.234 43.2031 385.547 45.0781 385.109 47.2344C384.703 49.3906 384.5 51.7188 384.5 54.2188C384.5 56.8125 384.688 59.0469 385.062 60.9219C385.469 62.7969 386 64.3906 386.656 65.7031C387.312 66.9844 388.062 68.0156 388.906 68.7969C389.75 69.5781 390.609 70.1719 391.484 70.5781C392.359 70.9844 393.219 71.2656 394.062 71.4219C394.906 71.5469 395.672 71.6094 396.359 71.6094C397.797 71.6094 399.141 71.375 400.391 70.9062C401.641 70.4375 402.719 69.5625 403.625 68.2812C404.531 67 405.25 65.2188 405.781 62.9375C406.312 60.625 406.578 57.6406 406.578 53.9844ZM494.141 74H471.172V70.25H478.203V37.8125H471.172V34.0625H486.641V41.3281H486.828C487.391 40.1094 488.078 39 488.891 38C489.734 36.9688 490.656 36.0781 491.656 35.3281C492.656 34.5781 493.719 34 494.844 33.5938C495.969 33.1875 497.109 32.9844 498.266 32.9844C500.141 32.9844 501.688 33.5312 502.906 34.625C504.125 35.7188 504.734 37.2344 504.734 39.1719C504.734 40.8906 504.266 42.2344 503.328 43.2031C502.391 44.1406 501.172 44.6094 499.672 44.6094C498.109 44.6094 496.906 44.1562 496.062 43.25C495.25 42.3438 494.844 41.2031 494.844 39.8281C494.844 39.1094 494.984 38.3281 495.266 37.4844C494.047 37.9219 492.906 38.625 491.844 39.5938C490.812 40.5312 489.906 41.7188 489.125 43.1562C488.344 44.5938 487.734 46.2656 487.297 48.1719C486.859 50.0469 486.641 52.1406 486.641 54.4531V70.25H494.141V74ZM537.641 64.625C536.797 68.2812 535.406 70.9844 533.469 72.7344C531.531 74.4531 528.859 75.3125 525.453 75.3125C523.672 75.3125 522.062 75.0938 520.625 74.6562C519.219 74.2188 518.016 73.5312 517.016 72.5938C516.016 71.625 515.25 70.4062 514.719 68.9375C514.188 67.4375 513.922 65.625 513.922 63.5V37.8125H506.891V34.0625H513.922V24.9688L522.359 23.5625V34.0625H534.547V37.8125H522.359V64.5312C522.359 65.8125 522.469 66.8594 522.688 67.6719C522.938 68.4844 523.281 69.125 523.719 69.5938C524.156 70.0625 524.672 70.3906 525.266 70.5781C525.859 70.7344 526.531 70.8125 527.281 70.8125C528.281 70.8125 529.141 70.6719 529.859 70.3906C530.578 70.0781 531.203 69.625 531.734 69.0312C532.297 68.4062 532.766 67.6406 533.141 66.7344C533.547 65.8281 533.922 64.7812 534.266 63.5938C534.859 63.6875 535.438 63.8125 536 63.9688C536.562 64.125 537.109 64.3438 537.641 64.625ZM569.562 47.3281C569.406 45.2969 569.062 43.5781 568.531 42.1719C568.031 40.7656 567.344 39.625 566.469 38.75C565.594 37.875 564.531 37.25 563.281 36.875C562.062 36.4688 560.656 36.2656 559.062 36.2656C557.844 36.2656 556.719 36.3906 555.688 36.6406C554.656 36.8594 553.766 37.2188 553.016 37.7188C552.266 38.1875 551.672 38.8125 551.234 39.5938C550.828 40.375 550.625 41.3125 550.625 42.4062C550.625 43.5 550.812 44.4062 551.188 45.125C551.594 45.8125 552.234 46.4375 553.109 47C554.016 47.5312 555.156 48.0469 556.531 48.5469C557.938 49.0469 559.656 49.6406 561.688 50.3281C563.312 50.8906 564.922 51.4844 566.516 52.1094C568.109 52.7344 569.531 53.5156 570.781 54.4531C572.062 55.3906 573.094 56.5312 573.875 57.875C574.656 59.1875 575.047 60.7969 575.047 62.7031C575.047 64.8594 574.562 66.7344 573.594 68.3281C572.625 69.9219 571.344 71.2344 569.75 72.2656C568.156 73.2969 566.344 74.0625 564.312 74.5625C562.281 75.0625 560.203 75.3125 558.078 75.3125C556.953 75.3125 555.75 75.25 554.469 75.125C553.219 75 551.969 74.8281 550.719 74.6094C549.5 74.3906 548.328 74.1406 547.203 73.8594C546.109 73.5469 545.141 73.2344 544.297 72.9219L543.969 59.3281H547.203C547.359 61.7031 547.688 63.7031 548.188 65.3281C548.719 66.9219 549.438 68.2031 550.344 69.1719C551.281 70.1406 552.406 70.8281 553.719 71.2344C555.062 71.6406 556.625 71.8438 558.406 71.8438C559.75 71.8438 560.984 71.7344 562.109 71.5156C563.266 71.2656 564.266 70.8906 565.109 70.3906C565.953 69.8594 566.609 69.1719 567.078 68.3281C567.578 67.4844 567.828 66.4688 567.828 65.2812C567.828 64.25 567.641 63.4062 567.266 62.75C566.891 62.0625 566.297 61.4531 565.484 60.9219C564.672 60.3906 563.625 59.8906 562.344 59.4219C561.062 58.9531 559.531 58.4062 557.75 57.7812C555.969 57.1562 554.25 56.5156 552.594 55.8594C550.969 55.1719 549.531 54.3594 548.281 53.4219C547.031 52.4531 546.031 51.2969 545.281 49.9531C544.531 48.6094 544.156 46.9688 544.156 45.0312C544.156 42.9062 544.594 41.0781 545.469 39.5469C546.344 37.9844 547.5 36.7031 548.938 35.7031C550.406 34.7031 552.078 33.9688 553.953 33.5C555.859 33.0312 557.828 32.7969 559.859 32.7969C560.891 32.7969 561.969 32.8594 563.094 32.9844C564.219 33.0781 565.328 33.2188 566.422 33.4062C567.547 33.5938 568.609 33.8125 569.609 34.0625C570.641 34.2812 571.578 34.5 572.422 34.7188L572.75 47.3281H569.562Z" fill="#4A90E2"/>
<path d="M444.237 80.1333C457.05 80.1333 467.473 68.4398 467.473 54.0667C467.473 39.6935 457.049 28 444.237 28C431.424 28 421 39.6935 421 54.0667C421 68.4398 431.424 80.1333 444.237 80.1333ZM425.544 67.2171H435.718L438.866 78.0855C433.28 76.5131 428.535 72.5456 425.544 67.2171ZM431.239 50.0148L436.011 51.7539L438.793 61.3611L435.845 65.9141H424.857C423.572 63.2816 422.708 60.3587 422.35 57.2593L431.239 50.0148ZM444.236 45.7139L451.317 51.4851L448.612 60.8235H439.859L437.154 51.4851L444.236 45.7139ZM452.461 51.7534L457.232 50.0142L466.121 57.2594C465.763 60.3583 464.899 63.2813 463.615 65.9137H452.627L449.678 61.3607L452.461 51.7534ZM440.179 78.4047L436.784 66.6808L439.733 62.1278H448.737L451.686 66.6808L448.291 78.4047C446.975 78.6801 445.621 78.8306 444.235 78.8306C442.849 78.8306 441.495 78.6801 440.179 78.4047ZM449.605 78.0864L452.753 67.218H462.927C459.937 72.5466 455.191 76.514 449.605 78.0864ZM466.253 55.7566L458.016 49.0436L461.16 38.1904C464.372 42.4923 466.31 48.0295 466.31 54.0668C466.31 54.6352 466.287 55.1979 466.253 55.7566ZM460.264 37.0655L456.872 48.7747L452.101 50.5138L444.816 44.5764V38.9486L453.706 31.702C456.181 33.0263 458.4 34.8554 460.264 37.0655ZM452.471 31.0977L444.235 37.8107L435.998 31.0977C438.545 29.9441 441.324 29.3024 444.235 29.3024C447.146 29.3024 449.924 29.9436 452.471 31.0977ZM434.764 31.7025L443.655 38.9487V44.5765L436.369 50.5139L431.598 48.7748L428.206 37.066C430.07 34.8559 432.289 33.0268 434.764 31.7025ZM427.31 38.1902L430.454 49.0429L422.217 55.756C422.184 55.1966 422.16 54.6348 422.16 54.0664C422.16 48.0288 424.098 42.4924 427.31 38.1902Z" fill="#4A90E2"/>
</svg>